PathFileType	4	(X/Y/Z)	C:\Users\visiteur\Documents\Sourcetree_OSPipeline\dataTest\rep_global_FRMB_Diane\SA04BD\Statique\Static_B_ref.trc
DataRate	CameraRate	NumFrames	NumMarkers	Units	OrigDataRate	OrigDataStartFrame	OrigNumFrames
100	100	9	43	m	100	231	243
Frame#	Time	MTTETE			TEMPG			OCCG			OCCD			TEMPD			MAN			C7			T8			XYP			COSTALD			COSTALG			MTACDL			MTACDM			MTACDB			ACD			CLAVD			MTACGL			MTACGM			MTACGB			ACG			CLAVG			MTBHAG			MTBHPG			MTBBPG			MTBBAG			ELG			EMG			MTABG			PSRG			PSUG			MC2G			MC5G			MTBHAD			MTBHPD			MTBBPD			MTBBAD			ELD			EMD			MTABD			PSRD			PSUD			MC2D			MC5D			
		X1	Y1	Z1	X2	Y2	Z2	X3	Y3	Z3	X4	Y4	Z4	X5	Y5	Z5	X6	Y6	Z6	X7	Y7	Z7	X8	Y8	Z8	X9	Y9	Z9	X10	Y10	Z10	X11	Y11	Z11	X12	Y12	Z12	X13	Y13	Z13	X14	Y14	Z14	X15	Y15	Z15	X16	Y16	Z16	X17	Y17	Z17	X18	Y18	Z18	X19	Y19	Z19	X20	Y20	Z20	X21	Y21	Z21	X22	Y22	Z22	X23	Y23	Z23	X24	Y24	Z24	X25	Y25	Z25	X26	Y26	Z26	X27	Y27	Z27	X28	Y28	Z28	X29	Y29	Z29	X30	Y30	Z30	X31	Y31	Z31	X32	Y32	Z32	X33	Y33	Z33	X34	Y34	Z34	X35	Y35	Z35	X36	Y36	Z36	X37	Y37	Z37	X38	Y38	Z38	X39	Y39	Z39	X40	Y40	Z40	X41	Y41	Z41	X42	Y42	Z42	X43	Y43	Z43	
183	1.8300	-0.370073	1.708538	0.058111	-0.323252	1.676663	0.111472	-0.206353	1.649198	0.103319	-0.201957	1.647445	-0.057035	-0.333670	1.690885	-0.047021	-0.322114	1.425690	0.029251	-0.157312	1.496652	0.007129	-0.119117	1.300306	0.006585	-0.377885	1.214789	0.028100	-0.377983	1.168343	-0.053468	-0.358925	1.158211	0.109128	-0.168099	1.431625	-0.157051	-0.132257	1.457593	-0.122249	-0.130957	1.423388	-0.147099	-0.224666	1.442373	-0.178836	-0.294513	1.450583	-0.065603	-0.119230	1.428285	0.157537	-0.095239	1.451760	0.111961	-0.087446	1.417540	0.136632	-0.166713	1.444653	0.198607	-0.267416	1.453798	0.116269	-0.200360	1.386856	0.302506	-0.148569	1.373719	0.289920	-0.110552	1.298061	0.337726	-0.198611	1.317923	0.362546	-0.125702	1.203408	0.395484	-0.186063	1.155211	0.353363	-0.187153	1.166634	0.516927	-0.182726	1.098695	0.622169	-0.160683	1.049819	0.604952	-0.183664	1.053209	0.706732	-0.177513	1.000487	0.659105	-0.214245	1.321344	-0.276122	-0.172952	1.295709	-0.256028	-0.202520	1.237947	-0.320085	-0.258558	1.268474	-0.349663	-0.234821	1.189525	-0.364935	-0.254706	1.130584	-0.300937	-0.319602	1.112208	-0.486414	-0.365686	1.060554	-0.547575	-0.332856	1.016895	-0.539046	-0.397807	1.007953	-0.617381	-0.370013	0.956162	-0.574706	
184	1.8400	-0.370150	1.708434	0.058072	-0.323301	1.676661	0.111453	-0.206367	1.649334	0.103279	-0.202008	1.647450	-0.057069	-0.333777	1.690740	-0.047052	-0.322030	1.425685	0.029272	-0.157232	1.496641	0.007126	-0.119090	1.300271	0.006501	-0.377829	1.214790	0.028111	-0.377979	1.168346	-0.053443	-0.358854	1.158202	0.109114	-0.168063	1.431614	-0.157043	-0.132187	1.457587	-0.122269	-0.130885	1.423382	-0.147117	-0.224609	1.442373	-0.178837	-0.294441	1.450578	-0.065595	-0.119130	1.428185	0.157500	-0.095143	1.451642	0.111909	-0.087364	1.417424	0.136566	-0.166572	1.444590	0.198593	-0.267306	1.453782	0.116282	-0.200172	1.386836	0.302518	-0.148452	1.373656	0.289895	-0.110463	1.297957	0.337692	-0.198427	1.317913	0.362586	-0.125645	1.203322	0.395478	-0.186071	1.155169	0.353416	-0.187063	1.166632	0.516964	-0.182618	1.098693	0.622210	-0.160624	1.049800	0.604987	-0.183551	1.053238	0.706786	-0.177463	1.000498	0.659162	-0.214191	1.321320	-0.276107	-0.172904	1.295688	-0.256006	-0.202474	1.237903	-0.320047	-0.258519	1.268433	-0.349641	-0.234784	1.189487	-0.364903	-0.254681	1.130554	-0.300873	-0.319560	1.112144	-0.486361	-0.365629	1.060471	-0.547510	-0.332809	1.016812	-0.538967	-0.397753	1.007853	-0.617311	-0.369972	0.956078	-0.574617	
185	1.8500	-0.370214	1.708338	0.058030	-0.323338	1.676670	0.111431	-0.206368	1.649481	0.103235	-0.202049	1.647449	-0.057105	-0.333875	1.690587	-0.047088	-0.321935	1.425683	0.029295	-0.157144	1.496629	0.007124	-0.119060	1.300235	0.006418	-0.377769	1.214793	0.028123	-0.377974	1.168355	-0.053418	-0.358778	1.158193	0.109096	-0.168025	1.431600	-0.157030	-0.132110	1.457583	-0.122287	-0.130803	1.423379	-0.147138	-0.224545	1.442376	-0.178838	-0.294361	1.450577	-0.065585	-0.119022	1.428081	0.157467	-0.095043	1.451513	0.111854	-0.087278	1.417297	0.136505	-0.166465	1.444525	0.198593	-0.267187	1.453767	0.116297	-0.199976	1.386819	0.302536	-0.148334	1.373592	0.289877	-0.110381	1.297849	0.337664	-0.198236	1.317906	0.362637	-0.125603	1.203233	0.395480	-0.186098	1.155129	0.353476	-0.186987	1.166631	0.517008	-0.182529	1.098688	0.622258	-0.160586	1.049779	0.605027	-0.183456	1.053263	0.706848	-0.177430	1.000505	0.659221	-0.214132	1.321297	-0.276091	-0.172852	1.295667	-0.255984	-0.202424	1.237861	-0.320008	-0.258478	1.268396	-0.349616	-0.234743	1.189451	-0.364867	-0.254646	1.130527	-0.300806	-0.319516	1.112082	-0.486304	-0.365571	1.060390	-0.547438	-0.332764	1.016730	-0.538883	-0.397705	1.007752	-0.617231	-0.369933	0.955996	-0.574522	
186	1.8600	-0.370268	1.708247	0.057988	-0.323361	1.676686	0.111409	-0.206359	1.649635	0.103189	-0.202079	1.647446	-0.057142	-0.333962	1.690427	-0.047125	-0.321833	1.425682	0.029320	-0.157049	1.496615	0.007125	-0.119026	1.300198	0.006337	-0.377705	1.214798	0.028134	-0.377968	1.168368	-0.053393	-0.358699	1.158183	0.109077	-0.167986	1.431584	-0.157011	-0.132026	1.457580	-0.122302	-0.130710	1.423379	-0.147160	-0.224473	1.442383	-0.178838	-0.294274	1.450579	-0.065572	-0.118907	1.427974	0.157442	-0.094943	1.451378	0.111798	-0.087187	1.417165	0.136454	-0.166389	1.444461	0.198603	-0.267059	1.453752	0.116314	-0.199785	1.386803	0.302560	-0.148218	1.373529	0.289867	-0.110308	1.297743	0.337643	-0.198047	1.317901	0.362696	-0.125577	1.203147	0.395491	-0.186144	1.155094	0.353542	-0.186927	1.166630	0.517059	-0.182462	1.098681	0.622310	-0.160570	1.049757	0.605071	-0.183381	1.053288	0.706918	-0.177415	1.000508	0.659282	-0.214067	1.321276	-0.276074	-0.172796	1.295648	-0.255962	-0.202369	1.237821	-0.319968	-0.258434	1.268363	-0.349590	-0.234697	1.189414	-0.364825	-0.254602	1.130502	-0.300739	-0.319471	1.112020	-0.486243	-0.365516	1.060310	-0.547359	-0.332720	1.016648	-0.538795	-0.397664	1.007651	-0.617142	-0.369896	0.955915	-0.574424	
187	1.8700	-0.370313	1.708158	0.057946	-0.323372	1.676706	0.111388	-0.206339	1.649793	0.103143	-0.202098	1.647442	-0.057178	-0.334038	1.690262	-0.047162	-0.321723	1.425683	0.029344	-0.156948	1.496599	0.007129	-0.118987	1.300162	0.006264	-0.377638	1.214805	0.028143	-0.377959	1.168387	-0.053370	-0.358617	1.158172	0.109056	-0.167945	1.431563	-0.156987	-0.131934	1.457574	-0.122312	-0.130607	1.423381	-0.147183	-0.224393	1.442390	-0.178838	-0.294178	1.450584	-0.065557	-0.118789	1.427869	0.157426	-0.094844	1.451242	0.111744	-0.087093	1.417031	0.136417	-0.166340	1.444399	0.198621	-0.266926	1.453738	0.116332	-0.199611	1.386788	0.302588	-0.148105	1.373468	0.289868	-0.110246	1.297642	0.337632	-0.197868	1.317896	0.362759	-0.125565	1.203065	0.395508	-0.186204	1.155064	0.353611	-0.186885	1.166630	0.517114	-0.182417	1.098672	0.622367	-0.160576	1.049733	0.605120	-0.183327	1.053313	0.706991	-0.177417	1.000508	0.659343	-0.213999	1.321256	-0.276055	-0.172735	1.295629	-0.255939	-0.202312	1.237784	-0.319929	-0.258385	1.268333	-0.349562	-0.234648	1.189378	-0.364780	-0.254550	1.130479	-0.300672	-0.319425	1.111960	-0.486178	-0.365464	1.060234	-0.547277	-0.332679	1.016568	-0.538706	-0.397629	1.007550	-0.617046	-0.369860	0.955836	-0.574322	
188	1.8800	-0.370349	1.708068	0.057907	-0.323372	1.676725	0.111368	-0.206309	1.649949	0.103099	-0.202103	1.647442	-0.057209	-0.334098	1.690097	-0.047195	-0.321609	1.425684	0.029368	-0.156842	1.496580	0.007137	-0.118941	1.300125	0.006200	-0.377567	1.214813	0.028150	-0.377946	1.168410	-0.053348	-0.358534	1.158162	0.109033	-0.167899	1.431537	-0.156957	-0.131836	1.457566	-0.122318	-0.130494	1.423382	-0.147205	-0.224304	1.442397	-0.178837	-0.294074	1.450591	-0.065542	-0.118669	1.427768	0.157421	-0.094749	1.451108	0.111696	-0.086998	1.416901	0.136395	-0.166310	1.444340	0.198643	-0.266792	1.453725	0.116350	-0.199463	1.386774	0.302620	-0.148000	1.373413	0.289880	-0.110195	1.297551	0.337634	-0.197709	1.317889	0.362822	-0.125566	1.202990	0.395530	-0.186274	1.155040	0.353678	-0.186861	1.166628	0.517170	-0.182396	1.098662	0.622424	-0.160604	1.049709	0.605170	-0.183296	1.053341	0.707064	-0.177441	1.000507	0.659403	-0.213925	1.321236	-0.276037	-0.172669	1.295607	-0.255915	-0.202251	1.237747	-0.319892	-0.258332	1.268306	-0.349534	-0.234597	1.189342	-0.364732	-0.254493	1.130458	-0.300608	-0.319380	1.111902	-0.486112	-0.365416	1.060160	-0.547192	-0.332640	1.016490	-0.538617	-0.397600	1.007452	-0.616945	-0.369825	0.955759	-0.574219	
189	1.8900	-0.370377	1.707977	0.057870	-0.323362	1.676739	0.111351	-0.206270	1.650097	0.103062	-0.202094	1.647447	-0.057235	-0.334141	1.689936	-0.047225	-0.321492	1.425685	0.029389	-0.156730	1.496556	0.007150	-0.118888	1.300087	0.006148	-0.377494	1.214821	0.028154	-0.377928	1.168434	-0.053329	-0.358452	1.158153	0.109008	-0.167845	1.431506	-0.156925	-0.131729	1.457553	-0.122318	-0.130371	1.423380	-0.147225	-0.224206	1.442401	-0.178834	-0.293962	1.450599	-0.065526	-0.118551	1.427673	0.157425	-0.094656	1.450982	0.111657	-0.086901	1.416779	0.136389	-0.166291	1.444286	0.198667	-0.266657	1.453711	0.116367	-0.199345	1.386759	0.302653	-0.147905	1.373364	0.289904	-0.110158	1.297473	0.337649	-0.197580	1.317878	0.362880	-0.125578	1.202925	0.395556	-0.186348	1.155021	0.353740	-0.186857	1.166626	0.517226	-0.182398	1.098653	0.622480	-0.160653	1.049685	0.605222	-0.183292	1.053374	0.707136	-0.177486	1.000507	0.659464	-0.213847	1.321215	-0.276018	-0.172599	1.295582	-0.255890	-0.202187	1.237712	-0.319859	-0.258273	1.268281	-0.349506	-0.234543	1.189306	-0.364684	-0.254430	1.130437	-0.300549	-0.319335	1.111846	-0.486045	-0.365374	1.060093	-0.547107	-0.332606	1.016416	-0.538531	-0.397577	1.007360	-0.616843	-0.369793	0.955686	-0.574120	
190	1.9000	-0.370396	1.707883	0.057837	-0.323344	1.676745	0.111336	-0.206222	1.650233	0.103032	-0.202069	1.647459	-0.057253	-0.334163	1.689785	-0.047250	-0.321374	1.425683	0.029406	-0.156614	1.496529	0.007164	-0.118828	1.300048	0.006109	-0.377417	1.214826	0.028155	-0.377900	1.168458	-0.053313	-0.358370	1.158145	0.108983	-0.167778	1.431471	-0.156892	-0.131614	1.457533	-0.122314	-0.130241	1.423372	-0.147241	-0.224101	1.442400	-0.178828	-0.293842	1.450605	-0.065511	-0.118436	1.427586	0.157437	-0.094565	1.450865	0.111628	-0.086803	1.416668	0.136397	-0.166273	1.444237	0.198691	-0.266525	1.453697	0.116382	-0.199256	1.386744	0.302686	-0.147824	1.373323	0.289938	-0.110132	1.297409	0.337678	-0.197485	1.317862	0.362930	-0.125598	1.202869	0.395586	-0.186420	1.155006	0.353794	-0.186872	1.166624	0.517278	-0.182423	1.098646	0.622532	-0.160722	1.049664	0.605274	-0.183316	1.053411	0.707203	-0.177556	1.000510	0.659525	-0.213764	1.321192	-0.276000	-0.172525	1.295552	-0.255865	-0.202120	1.237676	-0.319829	-0.258208	1.268256	-0.349479	-0.234486	1.189270	-0.364639	-0.254365	1.130415	-0.300497	-0.319291	1.111795	-0.485981	-0.365336	1.060033	-0.547027	-0.332577	1.016349	-0.538451	-0.397561	1.007280	-0.616745	-0.369764	0.955621	-0.574027	
191	1.9100	-0.370405	1.707788	0.057808	-0.323322	1.676739	0.111325	-0.206167	1.650352	0.103015	-0.202023	1.647479	-0.057262	-0.334163	1.689648	-0.047271	-0.321256	1.425680	0.029419	-0.156493	1.496498	0.007180	-0.118762	1.300008	0.006084	-0.377335	1.214829	0.028153	-0.377861	1.168481	-0.053299	-0.358288	1.158137	0.108956	-0.167694	1.431433	-0.156862	-0.131491	1.457506	-0.122305	-0.130106	1.423356	-0.147251	-0.223992	1.442393	-0.178817	-0.293715	1.450609	-0.065497	-0.118325	1.427508	0.157454	-0.094475	1.450761	0.111612	-0.086703	1.416571	0.136417	-0.166249	1.444194	0.198715	-0.266396	1.453682	0.116395	-0.199192	1.386728	0.302717	-0.147755	1.373289	0.289980	-0.110115	1.297360	0.337720	-0.197426	1.317841	0.362970	-0.125624	1.202823	0.395618	-0.186485	1.154994	0.353839	-0.186903	1.166621	0.517326	-0.182470	1.098643	0.622581	-0.160809	1.049646	0.605326	-0.183370	1.053452	0.707265	-0.177649	1.000518	0.659587	-0.213676	1.321165	-0.275983	-0.172446	1.295517	-0.255839	-0.202049	1.237641	-0.319804	-0.258136	1.268231	-0.349453	-0.234427	1.189235	-0.364597	-0.254297	1.130393	-0.300452	-0.319250	1.111749	-0.485923	-0.365304	1.059982	-0.546954	-0.332554	1.016291	-0.538381	-0.397551	1.007215	-0.616656	-0.369741	0.955565	-0.573944	
